<svg width="405" height="138" viewBox="0 0 405 138" fill="none" xmlns="http://www.w3.org/2000/svg">
<path d="M92.943 89.94L95.163 87.08C95.683 86.4 95.783 85.5 95.403 84.74L66.023 25.96C65.203 24.34 62.883 24.34 62.063 25.96L32.623 84.86C32.243 85.62 32.323 86.54 32.863 87.2L35.083 90.06C36.083 91.34 38.083 91.14 38.803 89.7L48.503 70.3C49.323 68.68 51.643 68.68 52.463 70.3L59.263 83.92C59.583 84.54 59.583 85.28 59.263 85.9L49.163 106.1C48.783 106.86 48.863 107.78 49.403 108.44L53.303 113.46L53.903 113.76L62.063 97.42C62.883 95.8 65.203 95.8 66.023 97.42L74.183 113.76L74.543 113.58L78.643 108.32C79.163 107.64 79.263 106.74 78.883 105.98L68.843 85.88C68.523 85.26 68.523 84.52 68.843 83.9L75.663 70.26C76.483 68.64 78.803 68.64 79.623 70.26L89.263 89.54C89.983 91 91.983 91.2 92.983 89.9L92.943 89.94ZM62.063 72.36L55.243 58.74C54.923 58.12 54.923 57.38 55.243 56.76L62.063 43.14C62.883 41.52 65.203 41.52 66.023 43.14L72.843 56.76C73.163 57.38 73.163 58.12 72.843 58.74L66.023 72.36C65.203 73.98 62.883 73.98 62.063 72.36Z" fill="white"/>
<path d="M165.363 86.04C164.983 86.04 164.643 85.82 164.483 85.48L159.663 75.04H138.783L133.963 85.48C133.803 85.82 133.463 86.04 133.083 86.04H128.063C127.743 86.04 127.423 85.88 127.263 85.6C127.083 85.32 127.063 84.98 127.203 84.68L145.803 44.36C145.963 44.02 146.303 43.8 146.683 43.8H151.703C152.083 43.8 152.423 44.02 152.583 44.36L171.123 84.68C171.263 84.98 171.243 85.32 171.063 85.6C170.883 85.88 170.583 86.04 170.263 86.04H165.363ZM156.843 68.92L149.243 52.48L141.643 68.92H156.843Z" fill="white"/>
<path d="M175.863 86.0401C175.323 86.0401 174.903 85.6201 174.903 85.0801V56.2801C174.903 55.7401 175.323 55.3201 175.863 55.3201H179.843C180.343 55.3201 180.763 55.7201 180.803 56.2201L181.183 61.8201C184.043 57.1001 188.463 54.4601 193.723 54.4601C194.263 54.4601 194.683 54.8801 194.683 55.4201V60.2601C194.683 60.8001 194.263 61.2201 193.723 61.2201C186.143 61.2201 181.443 67.2401 181.443 76.9001V85.0801C181.443 85.6201 181.023 86.0401 180.483 86.0401H175.883H175.863Z" fill="white"/>
<path d="M218.923 86.9C209.283 86.9 204.603 81.9 204.603 71.6V61.56H199.523C198.983 61.56 198.563 61.14 198.563 60.6V58.64C198.563 58.38 198.663 58.14 198.843 57.96L207.603 49.14C207.783 48.96 208.023 48.86 208.283 48.86H210.183C210.723 48.86 211.143 49.28 211.143 49.82V55.32H218.943C219.483 55.32 219.903 55.74 219.903 56.28V60.6C219.903 61.14 219.483 61.56 218.943 61.56H211.143V71.6C211.143 78 213.403 80.6 218.943 80.6C219.483 80.6 219.903 81.02 219.903 81.56V85.94C219.903 86.48 219.483 86.9 218.943 86.9H218.923Z" fill="white"/>
<path d="M230.623 86.04C230.083 86.04 229.663 85.62 229.663 85.08V61.56H224.463C223.923 61.56 223.503 61.14 223.503 60.6V56.28C223.503 55.74 223.923 55.32 224.463 55.32H229.683C230.083 47.44 235.343 42.94 244.263 42.94C244.803 42.94 245.223 43.36 245.223 43.9V47.7C245.223 48.24 244.803 48.66 244.263 48.66C239.183 48.66 236.523 50.84 236.203 55.32H244.263C244.803 55.32 245.223 55.74 245.223 56.28V60.6C245.223 61.14 244.803 61.56 244.263 61.56H236.183V85.08C236.183 85.62 235.763 86.04 235.223 86.04H230.623Z" fill="white"/>
<path d="M263.503 86.9001C255.043 86.9001 248.663 79.9601 248.663 70.7401C248.663 61.5201 255.043 54.4601 263.503 54.4601C267.783 54.4601 271.523 56.2601 274.123 59.4801L274.483 56.2001C274.543 55.7201 274.943 55.3401 275.443 55.3401H279.423C279.963 55.3401 280.383 55.7601 280.383 56.3001V85.1001C280.383 85.6401 279.963 86.0601 279.423 86.0601H275.443C274.943 86.0601 274.543 85.6801 274.483 85.2001L274.163 81.9401C271.563 85.1401 267.803 86.9201 263.503 86.9201V86.9001ZM264.703 60.5201C259.103 60.5201 255.183 64.7001 255.183 70.6801C255.183 76.6601 259.183 80.7801 264.703 80.7801C270.223 80.7801 273.823 76.7201 273.823 70.6801C273.823 64.6401 270.063 60.5201 264.703 60.5201Z" fill="white"/>
<path d="M302.303 86.9001C293.163 86.9001 286.263 79.9601 286.263 70.7401C286.263 61.5201 293.163 54.4601 302.303 54.4601C309.943 54.4601 315.963 58.9201 318.023 66.1001C318.103 66.3801 318.043 66.7001 317.863 66.9401C317.683 67.1801 317.403 67.3201 317.103 67.3201H312.323C311.923 67.3201 311.563 67.0801 311.423 66.7001C309.943 62.8801 306.463 60.5201 302.303 60.5201C296.783 60.5201 292.783 64.8001 292.783 70.6801C292.783 76.5601 296.783 80.7801 302.303 80.7801C306.563 80.7801 310.083 78.4201 311.483 74.6201C311.623 74.2401 311.983 74.0001 312.383 74.0001H317.163C317.463 74.0001 317.743 74.1401 317.923 74.3801C318.103 74.6201 318.163 74.9401 318.083 75.2201C316.023 82.4401 309.963 86.9201 302.303 86.9201V86.9001Z" fill="white"/>
<path d="M341.243 86.9C331.603 86.9 326.923 81.9 326.923 71.6V61.56H321.843C321.303 61.56 320.883 61.14 320.883 60.6V58.64C320.883 58.38 320.983 58.14 321.163 57.96L329.923 49.14C330.103 48.96 330.343 48.86 330.603 48.86H332.503C333.043 48.86 333.463 49.28 333.463 49.82V55.32H341.263C341.803 55.32 342.223 55.74 342.223 56.28V60.6C342.223 61.14 341.803 61.56 341.263 61.56H333.463V71.6C333.463 78 335.723 80.6 341.263 80.6C341.803 80.6 342.223 81.02 342.223 81.56V85.94C342.223 86.48 341.803 86.9 341.263 86.9H341.243Z" fill="white"/>
<path d="M360.463 86.9001C352.363 86.9001 347.103 83.2201 346.383 77.0601C346.343 76.7801 346.443 76.5201 346.623 76.3001C346.803 76.1001 347.063 75.9801 347.343 75.9801H351.723C352.183 75.9801 352.583 76.3201 352.663 76.7801C353.223 79.8801 355.863 81.4601 360.523 81.4601C363.863 81.4601 366.483 79.7001 366.483 77.4601C366.483 74.4801 363.563 73.8001 358.783 72.9601C353.663 72.0401 347.303 70.9201 347.303 63.8801C347.303 58.5001 352.543 54.4601 359.503 54.4601C367.143 54.4601 371.983 58.2001 372.503 64.4401C372.523 64.7001 372.443 64.9801 372.243 65.1601C372.063 65.3601 371.803 65.4601 371.543 65.4601H367.283C366.783 65.4601 366.363 65.0801 366.323 64.5601C366.103 61.5401 363.603 59.8001 359.443 59.8001C356.263 59.8001 353.663 61.6001 353.663 63.8001C353.663 66.5401 356.443 67.1401 360.983 67.8801C366.243 68.7401 372.783 69.8001 372.783 77.4001C372.783 82.9001 367.603 86.8801 360.483 86.8801L360.463 86.9001Z" fill="white"/>
</svg>
